<?xml version="1.0" encoding="utf-8"?>
<!-- Generator: Adobe Illustrator 22.0.1, SVG Export Plug-In . SVG Version: 6.00 Build 0)  -->
<svg version="1.1" id="BACKGROUND" xmlns="http://www.w3.org/2000/svg" xmlns:xlink="http://www.w3.org/1999/xlink" x="0px" y="0px"
	 viewBox="0 0 750 500" style="enable-background:new 0 0 750 500;" xml:space="preserve">
<style type="text/css">
	.st0{fill:url(#SVGID_1_);}
	.st1{opacity:0.64;clip-path:url(#SVGID_3_);}
	.st2{fill:none;stroke:#FFFFFF;stroke-width:2;stroke-miterlimit:10;}
	.st3{clip-path:url(#SVGID_3_);}
	.st4{fill:url(#SVGID_4_);}
	.st5{fill:url(#SVGID_5_);}
	.st6{fill:url(#SVGID_6_);}
	.st7{fill:url(#SVGID_7_);}
	.st8{fill:url(#SVGID_8_);}
	.st9{fill:url(#SVGID_9_);}
	.st10{fill:url(#SVGID_10_);}
	.st11{opacity:0.7;fill:url(#SVGID_11_);}
	.st12{fill:url(#SVGID_12_);}
	.st13{fill:url(#SVGID_13_);}
	.st14{fill:url(#SVGID_14_);}
	.st15{opacity:0.7;fill:url(#SVGID_15_);}
	.st16{fill:url(#SVGID_16_);}
	.st17{fill:url(#SVGID_17_);}
	.st18{fill:url(#SVGID_18_);}
	.st19{fill:url(#SVGID_19_);}
	.st20{fill:url(#SVGID_20_);}
	.st21{fill:url(#SVGID_21_);}
	.st22{fill:url(#SVGID_22_);}
	.st23{opacity:0.7;fill:url(#SVGID_23_);}
	.st24{fill:url(#SVGID_24_);}
	.st25{fill:url(#SVGID_25_);}
	.st26{fill:url(#SVGID_26_);}
	.st27{opacity:0.7;fill:url(#SVGID_27_);}
	.st28{fill:url(#SVGID_28_);}
	.st29{fill:url(#SVGID_29_);}
	.st30{fill:url(#SVGID_30_);}
	.st31{opacity:0.7;fill:url(#SVGID_31_);}
	.st32{fill:url(#SVGID_32_);}
	.st33{fill:url(#SVGID_33_);}
	.st34{fill:url(#SVGID_34_);}
	.st35{fill:url(#SVGID_35_);}
	.st36{fill:url(#SVGID_36_);}
	.st37{fill:url(#SVGID_37_);}
	.st38{fill:url(#SVGID_38_);}
	.st39{fill:url(#SVGID_39_);}
	.st40{fill:url(#SVGID_40_);}
	.st41{fill:url(#SVGID_41_);}
	.st42{opacity:0.7;fill:url(#SVGID_42_);}
	.st43{fill:url(#SVGID_43_);}
	.st44{fill:url(#SVGID_44_);}
	.st45{fill:url(#SVGID_45_);}
	.st46{opacity:0.7;fill:url(#SVGID_46_);}
	.st47{fill:url(#SVGID_47_);}
	.st48{fill:url(#SVGID_48_);}
	.st49{fill:url(#SVGID_49_);}
	.st50{opacity:0.7;fill:url(#SVGID_50_);}
	.st51{fill:url(#SVGID_51_);}
</style>
<g>
	<linearGradient id="SVGID_1_" gradientUnits="userSpaceOnUse" x1="0" y1="250" x2="750" y2="250">
		<stop  offset="0" style="stop-color:#171B22"/>
		<stop  offset="1" style="stop-color:#020202"/>
	</linearGradient>
	<rect class="st0" width="750" height="500"/>
	<g>
		<defs>
			<rect id="SVGID_2_" width="750" height="500"/>
		</defs>
		<clipPath id="SVGID_3_">
			<use xlink:href="#SVGID_2_"  style="overflow:visible;"/>
		</clipPath>
		<g class="st1">
			<line class="st2" x1="16.8" y1="0" x2="-515.8" y2="532.6"/>
			<line class="st2" x1="25.8" y1="0" x2="-506.9" y2="532.6"/>
			<line class="st2" x1="34.7" y1="0" x2="-497.9" y2="532.6"/>
			<line class="st2" x1="43.7" y1="0" x2="-488.9" y2="532.6"/>
			<line class="st2" x1="52.7" y1="0" x2="-479.9" y2="532.6"/>
			<line class="st2" x1="61.7" y1="0" x2="-471" y2="532.6"/>
			<line class="st2" x1="70.6" y1="0" x2="-462" y2="532.6"/>
			<line class="st2" x1="79.6" y1="0" x2="-453" y2="532.6"/>
			<line class="st2" x1="88.6" y1="0" x2="-444" y2="532.6"/>
			<line class="st2" x1="97.6" y1="0" x2="-435.1" y2="532.6"/>
			<line class="st2" x1="106.5" y1="0" x2="-426.1" y2="532.6"/>
			<line class="st2" x1="115.5" y1="0" x2="-417.1" y2="532.6"/>
			<line class="st2" x1="124.5" y1="0" x2="-408.1" y2="532.6"/>
			<line class="st2" x1="133.4" y1="0" x2="-399.2" y2="532.6"/>
			<line class="st2" x1="142.4" y1="0" x2="-390.2" y2="532.6"/>
			<line class="st2" x1="151.4" y1="0" x2="-381.2" y2="532.6"/>
			<line class="st2" x1="160.4" y1="0" x2="-372.3" y2="532.6"/>
			<line class="st2" x1="169.3" y1="0" x2="-363.3" y2="532.6"/>
			<line class="st2" x1="178.3" y1="0" x2="-354.3" y2="532.6"/>
			<line class="st2" x1="187.3" y1="0" x2="-345.3" y2="532.6"/>
			<line class="st2" x1="196.3" y1="0" x2="-336.4" y2="532.6"/>
			<line class="st2" x1="205.2" y1="0" x2="-327.4" y2="532.6"/>
			<line class="st2" x1="214.2" y1="0" x2="-318.4" y2="532.6"/>
			<line class="st2" x1="223.2" y1="0" x2="-309.4" y2="532.6"/>
			<line class="st2" x1="232.2" y1="0" x2="-300.5" y2="532.6"/>
			<line class="st2" x1="241.1" y1="0" x2="-291.5" y2="532.6"/>
			<line class="st2" x1="250.1" y1="0" x2="-282.5" y2="532.6"/>
			<line class="st2" x1="259.1" y1="0" x2="-273.5" y2="532.6"/>
			<line class="st2" x1="268.1" y1="0" x2="-264.6" y2="532.6"/>
			<line class="st2" x1="277" y1="0" x2="-255.6" y2="532.6"/>
			<line class="st2" x1="286" y1="0" x2="-246.6" y2="532.6"/>
			<line class="st2" x1="295" y1="0" x2="-237.6" y2="532.6"/>
			<line class="st2" x1="304" y1="0" x2="-228.7" y2="532.6"/>
			<line class="st2" x1="312.9" y1="0" x2="-219.7" y2="532.6"/>
			<line class="st2" x1="321.9" y1="0" x2="-210.7" y2="532.6"/>
			<line class="st2" x1="330.9" y1="0" x2="-201.7" y2="532.6"/>
			<line class="st2" x1="339.9" y1="0" x2="-192.8" y2="532.6"/>
			<line class="st2" x1="348.8" y1="0" x2="-183.8" y2="532.6"/>
			<line class="st2" x1="357.8" y1="0" x2="-174.8" y2="532.6"/>
			<line class="st2" x1="366.8" y1="0" x2="-165.8" y2="532.6"/>
			<line class="st2" x1="375.8" y1="0" x2="-156.9" y2="532.6"/>
			<line class="st2" x1="384.7" y1="0" x2="-147.9" y2="532.6"/>
			<line class="st2" x1="393.7" y1="0" x2="-138.9" y2="532.6"/>
			<line class="st2" x1="402.7" y1="0" x2="-129.9" y2="532.6"/>
			<line class="st2" x1="411.7" y1="0" x2="-121" y2="532.6"/>
			<line class="st2" x1="420.6" y1="0" x2="-112" y2="532.6"/>
			<line class="st2" x1="429.6" y1="0" x2="-103" y2="532.6"/>
			<line class="st2" x1="438.6" y1="0" x2="-94" y2="532.6"/>
			<line class="st2" x1="447.6" y1="0" x2="-85.1" y2="532.6"/>
			<line class="st2" x1="456.5" y1="0" x2="-76.1" y2="532.6"/>
			<line class="st2" x1="465.5" y1="0" x2="-67.1" y2="532.6"/>
			<line class="st2" x1="474.5" y1="0" x2="-58.1" y2="532.6"/>
			<line class="st2" x1="483.5" y1="0" x2="-49.2" y2="532.6"/>
			<line class="st2" x1="492.4" y1="0" x2="-40.2" y2="532.6"/>
			<line class="st2" x1="501.4" y1="0" x2="-31.2" y2="532.6"/>
			<line class="st2" x1="510.4" y1="0" x2="-22.2" y2="532.6"/>
			<line class="st2" x1="519.4" y1="0" x2="-13.3" y2="532.6"/>
			<line class="st2" x1="528.3" y1="0" x2="-4.3" y2="532.6"/>
			<line class="st2" x1="537.3" y1="0" x2="4.7" y2="532.6"/>
			<line class="st2" x1="546.3" y1="0" x2="13.7" y2="532.6"/>
			<line class="st2" x1="555.3" y1="0" x2="22.6" y2="532.6"/>
			<line class="st2" x1="564.2" y1="0" x2="31.6" y2="532.6"/>
			<line class="st2" x1="573.2" y1="0" x2="40.6" y2="532.6"/>
			<line class="st2" x1="582.2" y1="0" x2="49.6" y2="532.6"/>
			<line class="st2" x1="591.2" y1="0" x2="58.5" y2="532.6"/>
			<line class="st2" x1="600.1" y1="0" x2="67.5" y2="532.6"/>
			<line class="st2" x1="609.1" y1="0" x2="76.5" y2="532.6"/>
			<line class="st2" x1="618.1" y1="0" x2="85.5" y2="532.6"/>
			<line class="st2" x1="627.1" y1="0" x2="94.4" y2="532.6"/>
			<line class="st2" x1="636" y1="0" x2="103.4" y2="532.6"/>
			<line class="st2" x1="645" y1="0" x2="112.4" y2="532.6"/>
			<line class="st2" x1="654" y1="0" x2="121.4" y2="532.6"/>
			<line class="st2" x1="663" y1="0" x2="130.3" y2="532.6"/>
			<line class="st2" x1="671.9" y1="0" x2="139.3" y2="532.6"/>
			<line class="st2" x1="680.9" y1="0" x2="148.3" y2="532.6"/>
			<line class="st2" x1="689.9" y1="0" x2="157.3" y2="532.6"/>
			<line class="st2" x1="698.9" y1="0" x2="166.2" y2="532.6"/>
			<line class="st2" x1="707.8" y1="0" x2="175.2" y2="532.6"/>
			<line class="st2" x1="716.8" y1="0" x2="184.2" y2="532.6"/>
			<line class="st2" x1="725.8" y1="0" x2="193.2" y2="532.6"/>
			<line class="st2" x1="734.8" y1="0" x2="202.1" y2="532.6"/>
			<line class="st2" x1="743.7" y1="0" x2="211.1" y2="532.6"/>
			<line class="st2" x1="752.7" y1="0" x2="220.1" y2="532.6"/>
			<line class="st2" x1="761.7" y1="0" x2="229.1" y2="532.6"/>
			<line class="st2" x1="770.7" y1="0" x2="238" y2="532.6"/>
			<line class="st2" x1="779.6" y1="0" x2="247" y2="532.6"/>
			<line class="st2" x1="788.6" y1="0" x2="256" y2="532.6"/>
			<line class="st2" x1="797.6" y1="0" x2="264.9" y2="532.6"/>
			<line class="st2" x1="806.5" y1="0" x2="273.9" y2="532.6"/>
			<line class="st2" x1="815.5" y1="0" x2="282.9" y2="532.6"/>
			<line class="st2" x1="824.5" y1="0" x2="291.9" y2="532.6"/>
			<line class="st2" x1="833.5" y1="0" x2="300.8" y2="532.6"/>
			<line class="st2" x1="842.4" y1="0" x2="309.8" y2="532.6"/>
			<line class="st2" x1="851.4" y1="0" x2="318.8" y2="532.6"/>
			<line class="st2" x1="860.4" y1="0" x2="327.8" y2="532.6"/>
			<line class="st2" x1="869.4" y1="0" x2="336.7" y2="532.6"/>
			<line class="st2" x1="878.3" y1="0" x2="345.7" y2="532.6"/>
			<line class="st2" x1="887.3" y1="0" x2="354.7" y2="532.6"/>
			<line class="st2" x1="896.3" y1="0" x2="363.7" y2="532.6"/>
			<line class="st2" x1="905.3" y1="0" x2="372.6" y2="532.6"/>
			<line class="st2" x1="914.2" y1="0" x2="381.6" y2="532.6"/>
			<line class="st2" x1="923.2" y1="0" x2="390.6" y2="532.6"/>
			<line class="st2" x1="932.2" y1="0" x2="399.6" y2="532.6"/>
			<line class="st2" x1="941.2" y1="0" x2="408.5" y2="532.6"/>
			<line class="st2" x1="950.1" y1="0" x2="417.5" y2="532.6"/>
			<line class="st2" x1="959.1" y1="0" x2="426.5" y2="532.6"/>
			<line class="st2" x1="968.1" y1="0" x2="435.5" y2="532.6"/>
			<line class="st2" x1="977.1" y1="0" x2="444.4" y2="532.6"/>
			<line class="st2" x1="986" y1="0" x2="453.4" y2="532.6"/>
			<line class="st2" x1="995" y1="0" x2="462.4" y2="532.6"/>
			<line class="st2" x1="1004" y1="0" x2="471.4" y2="532.6"/>
			<line class="st2" x1="1013" y1="0" x2="480.3" y2="532.6"/>
			<line class="st2" x1="1021.9" y1="0" x2="489.3" y2="532.6"/>
			<line class="st2" x1="1030.9" y1="0" x2="498.3" y2="532.6"/>
			<line class="st2" x1="1039.9" y1="0" x2="507.3" y2="532.6"/>
			<line class="st2" x1="1048.9" y1="0" x2="516.2" y2="532.6"/>
			<line class="st2" x1="1057.8" y1="0" x2="525.2" y2="532.6"/>
			<line class="st2" x1="1066.8" y1="0" x2="534.2" y2="532.6"/>
			<line class="st2" x1="1075.8" y1="0" x2="543.2" y2="532.6"/>
			<line class="st2" x1="1084.8" y1="0" x2="552.1" y2="532.6"/>
			<line class="st2" x1="1093.7" y1="0" x2="561.1" y2="532.6"/>
			<line class="st2" x1="1102.7" y1="0" x2="570.1" y2="532.6"/>
			<line class="st2" x1="1111.7" y1="0" x2="579.1" y2="532.6"/>
			<line class="st2" x1="1120.7" y1="0" x2="588" y2="532.6"/>
			<line class="st2" x1="1129.6" y1="0" x2="597" y2="532.6"/>
			<line class="st2" x1="1138.6" y1="0" x2="606" y2="532.6"/>
			<line class="st2" x1="1147.6" y1="0" x2="615" y2="532.6"/>
			<line class="st2" x1="1156.6" y1="0" x2="623.9" y2="532.6"/>
			<line class="st2" x1="1165.5" y1="0" x2="632.9" y2="532.6"/>
			<line class="st2" x1="1174.5" y1="0" x2="641.9" y2="532.6"/>
			<line class="st2" x1="1183.5" y1="0" x2="650.9" y2="532.6"/>
			<line class="st2" x1="1192.5" y1="0" x2="659.8" y2="532.6"/>
			<line class="st2" x1="1201.4" y1="0" x2="668.8" y2="532.6"/>
			<line class="st2" x1="1210.4" y1="0" x2="677.8" y2="532.6"/>
			<line class="st2" x1="1219.4" y1="0" x2="686.8" y2="532.6"/>
			<line class="st2" x1="1228.4" y1="0" x2="695.7" y2="532.6"/>
			<line class="st2" x1="1237.3" y1="0" x2="704.7" y2="532.6"/>
			<line class="st2" x1="1246.3" y1="0" x2="713.7" y2="532.6"/>
			<line class="st2" x1="1255.3" y1="0" x2="722.7" y2="532.6"/>
			<line class="st2" x1="1264.3" y1="0" x2="731.6" y2="532.6"/>
			<line class="st2" x1="1273.2" y1="0" x2="740.6" y2="532.6"/>
			<line class="st2" x1="1282.2" y1="0" x2="749.6" y2="532.6"/>
			<line class="st2" x1="1291.2" y1="0" x2="758.6" y2="532.6"/>
			<line class="st2" x1="1300.2" y1="0" x2="767.5" y2="532.6"/>
		</g>
		<g class="st3">
			<g>
				<g>
					<linearGradient id="SVGID_4_" gradientUnits="userSpaceOnUse" x1="61.2446" y1="123.0306" x2="645.9362" y2="-117.3032">
						<stop  offset="0" style="stop-color:#A37842"/>
						<stop  offset="0.2" style="stop-color:#A3896F"/>
						<stop  offset="0.4846" style="stop-color:#E1D8D0"/>
						<stop  offset="0.7795" style="stop-color:#A3896F"/>
						<stop  offset="1" style="stop-color:#A37842"/>
					</linearGradient>
					<polygon class="st4" points="-4.1,266.7 783.5,-11 -8.9,-11 					"/>
					<linearGradient id="SVGID_5_" gradientUnits="userSpaceOnUse" x1="392.9012" y1="162.6482" x2="345.9012" y2="30.6483">
						<stop  offset="0" style="stop-color:#232935"/>
						<stop  offset="1" style="stop-color:#090B08"/>
					</linearGradient>
					<polygon class="st5" points="-8.9,266.7 769.9,-11 -8.9,-11 					"/>
					<linearGradient id="SVGID_6_" gradientUnits="userSpaceOnUse" x1="298.2417" y1="142.6306" x2="239.3142" y2="44.7349">
						<stop  offset="0" style="stop-color:#232935"/>
						<stop  offset="1" style="stop-color:#090B08"/>
					</linearGradient>
					<polygon class="st6" points="-8.9,250 577.5,-11 -8.9,-11 					"/>
					<linearGradient id="SVGID_7_" gradientUnits="userSpaceOnUse" x1="205.2555" y1="149.4349" x2="150.2554" y2="-18.5651">
						<stop  offset="0" style="stop-color:#232935"/>
						<stop  offset="0.323" style="stop-color:#1B1F26"/>
						<stop  offset="1" style="stop-color:#090B08"/>
					</linearGradient>
					<polygon class="st7" points="-8.9,240 396.5,-11 -8.9,-11 					"/>
					<g>
						<g>
							<linearGradient id="SVGID_8_" gradientUnits="userSpaceOnUse" x1="-9.6347" y1="114.0301" x2="361.0179" y2="114.0301">
								<stop  offset="0" style="stop-color:#A37842"/>
								<stop  offset="0.2" style="stop-color:#A3896F"/>
								<stop  offset="0.4846" style="stop-color:#E1D8D0"/>
								<stop  offset="0.7795" style="stop-color:#A3896F"/>
								<stop  offset="1" style="stop-color:#A37842"/>
							</linearGradient>
							<path class="st8" d="M-8.9,240l183.2-126.2l91.3-62.9L357-11.8l0.5,1.7l-183.2,0L-8.9-10.3l0.7-0.7L-8.9,240z M-8.9,240
								L-9.6-11l0-0.7l0.7,0l183.2-0.2l183.2,0l3,0l-2.5,1.7l-91.8,62.8l-91.9,62.6L-8.9,240z"/>
						</g>
					</g>
				</g>
				<g>
					
						<radialGradient id="SVGID_9_" cx="1095.5183" cy="12515.1992" r="215.5347" gradientTransform="matrix(0.8064 -0.2847 -2.230000e-02 -7.640000e-02 -154.3813 1372.5594)" gradientUnits="userSpaceOnUse">
						<stop  offset="0" style="stop-color:#E3DDDC"/>
						<stop  offset="6.131738e-02" style="stop-color:#DDD4CE;stop-opacity:0.9387"/>
						<stop  offset="0.2409" style="stop-color:#CEBFAC;stop-opacity:0.7591"/>
						<stop  offset="0.424" style="stop-color:#C1AE91;stop-opacity:0.576"/>
						<stop  offset="0.6097" style="stop-color:#B9A27E;stop-opacity:0.3903"/>
						<stop  offset="0.7996" style="stop-color:#B49A73;stop-opacity:0.2004"/>
						<stop  offset="1" style="stop-color:#B2986F;stop-opacity:0"/>
					</radialGradient>
					<path class="st9" d="M623.6,43.2C621,34.1,541,54.2,445.1,88c-95.9,33.9-171.5,68.7-168.8,77.8c2.7,9.1,82.6-11,178.5-44.8
						C550.7,87.1,626.3,52.3,623.6,43.2z"/>
					<g>
						
							<radialGradient id="SVGID_10_" cx="725.6086" cy="15352.7686" r="48.2925" gradientTransform="matrix(2.0205 -0.7132 -1.530000e-02 -5.290000e-02 -781.2391 1434.1696)" gradientUnits="userSpaceOnUse">
							<stop  offset="0" style="stop-color:#E3DDDC"/>
							<stop  offset="0.3139" style="stop-color:#CDC0B6;stop-opacity:0.6861"/>
							<stop  offset="0.7737" style="stop-color:#AF9883;stop-opacity:0.2263"/>
							<stop  offset="1" style="stop-color:#A3896F;stop-opacity:0"/>
						</radialGradient>
						<path class="st10" d="M547.5,70.1c-0.4-1.4-44.4,12.9-98.3,31.9c-53.9,19-97.2,35.6-96.8,37c0.4,1.4,44.4-12.9,98.3-31.9
							C504.6,88,547.9,71.5,547.5,70.1z"/>
						
							<radialGradient id="SVGID_11_" cx="259.2061" cy="-205.1102" r="17.3475" gradientTransform="matrix(0.685 0.394 -1.1409 0.6733 38.3894 140.4776)" gradientUnits="userSpaceOnUse">
							<stop  offset="0" style="stop-color:#FFE4C6"/>
							<stop  offset="0.4354" style="stop-color:#FFE6B4;stop-opacity:0.5646"/>
							<stop  offset="1" style="stop-color:#FFE8A0;stop-opacity:0"/>
						</radialGradient>
						<path class="st11" d="M461.8,111.3c-10.9,6.5-25.1,8.6-31.7,4.8c-6.6-3.8-3-12.1,7.9-18.5c10.9-6.5,25.1-8.6,31.7-4.8
							C476.3,96.6,472.8,104.9,461.8,111.3z"/>
						
							<radialGradient id="SVGID_12_" cx="149.643" cy="10.968" r="4.9095" gradientTransform="matrix(0.5493 0.4941 -3.9183 1.4471 410.7328 14.6937)" gradientUnits="userSpaceOnUse">
							<stop  offset="0.1329" style="stop-color:#FFFFFF"/>
							<stop  offset="1" style="stop-color:#FFFFFF;stop-opacity:0"/>
						</radialGradient>
						<path class="st12" d="M452.7,106.9c-10.6,3.9-20.4,6-21.9,4.7c-1.5-1.3,5.9-5.6,16.5-9.5c10.6-3.9,20.4-6,21.9-4.7
							C470.7,98.7,463.3,103,452.7,106.9z"/>
					</g>
				</g>
				<g>
					
						<radialGradient id="SVGID_13_" cx="920.5349" cy="13132.9912" r="215.5154" gradientTransform="matrix(0.4825 -0.3315 -2.410000e-02 -4.060000e-02 77.3409 932.2517)" gradientUnits="userSpaceOnUse">
						<stop  offset="0" style="stop-color:#E3DDDC"/>
						<stop  offset="6.131738e-02" style="stop-color:#DDD4CE;stop-opacity:0.9387"/>
						<stop  offset="0.2409" style="stop-color:#CEBFAC;stop-opacity:0.7591"/>
						<stop  offset="0.424" style="stop-color:#C1AE91;stop-opacity:0.576"/>
						<stop  offset="0.6097" style="stop-color:#B9A27E;stop-opacity:0.3903"/>
						<stop  offset="0.7996" style="stop-color:#B49A73;stop-opacity:0.2004"/>
						<stop  offset="1" style="stop-color:#B2986F;stop-opacity:0"/>
					</radialGradient>
					<path class="st13" d="M308.9,22.5c-2.9-4.8-51.7,23.2-109.1,62.6c-57.4,39.4-101.6,75.3-98.7,80.1
						c2.9,4.8,51.7-23.2,109.1-62.6C267.6,63.2,311.8,27.3,308.9,22.5z"/>
					<g>
						
							<radialGradient id="SVGID_14_" cx="655.6938" cy="16262.1113" r="48.3105" gradientTransform="matrix(1.209 -0.8306 -1.660000e-02 -2.810000e-02 -317.789 1095.4795)" gradientUnits="userSpaceOnUse">
							<stop  offset="0" style="stop-color:#E3DDDC"/>
							<stop  offset="0.3139" style="stop-color:#CDC0B6;stop-opacity:0.6861"/>
							<stop  offset="0.7737" style="stop-color:#AF9883;stop-opacity:0.2263"/>
							<stop  offset="1" style="stop-color:#A3896F;stop-opacity:0"/>
						</radialGradient>
						<path class="st14" d="M263.4,53.8c-0.4-0.7-26.9,16.6-59.2,38.7c-32.2,22.1-58,40.7-57.6,41.5c0.4,0.7,26.9-16.6,59.2-38.7
							C238,73.1,263.8,54.5,263.4,53.8z"/>
						
							<radialGradient id="SVGID_15_" cx="147.294" cy="-134.591" r="17.3486" gradientTransform="matrix(0.4905 9.410000e-02 -0.6483 0.6289 45.4908 164.6788)" gradientUnits="userSpaceOnUse">
							<stop  offset="0" style="stop-color:#FFE4C6"/>
							<stop  offset="0.4354" style="stop-color:#FFE6B4;stop-opacity:0.5646"/>
							<stop  offset="1" style="stop-color:#FFE8A0;stop-opacity:0"/>
						</radialGradient>
						<path class="st15" d="M213.5,95.5c-6.2,6-15.1,10.2-19.8,9.3c-4.7-0.9-3.5-6.5,2.7-12.5c6.2-6,15.1-10.2,19.8-9.3
							S219.7,89.5,213.5,95.5z"/>
						
							<radialGradient id="SVGID_16_" cx="69.7313" cy="40.176" r="4.9092" gradientTransform="matrix(0.416 0.1808 -2.3364 1.6485 269.8526 15.0576)" gradientUnits="userSpaceOnUse">
							<stop  offset="0.1329" style="stop-color:#FFFFFF"/>
							<stop  offset="1" style="stop-color:#FFFFFF;stop-opacity:0"/>
						</radialGradient>
						<path class="st16" d="M207,94.8c-6.3,4.5-12.4,7.7-13.5,7.2c-1.1-0.5,3.1-4.5,9.4-9c6.3-4.5,12.4-7.7,13.5-7.2
							C217.6,86.3,213.4,90.3,207,94.8z"/>
					</g>
				</g>
			</g>
			<g>
				<g>
					<linearGradient id="SVGID_17_" gradientUnits="userSpaceOnUse" x1="642.9953" y1="526.3699" x2="855.9951" y2="88.3699">
						<stop  offset="0" style="stop-color:#A37842"/>
						<stop  offset="0.2" style="stop-color:#A3896F"/>
						<stop  offset="0.4846" style="stop-color:#E1D8D0"/>
						<stop  offset="0.7795" style="stop-color:#A3896F"/>
						<stop  offset="1" style="stop-color:#A37842"/>
					</linearGradient>
					<polygon class="st17" points="509.5,536 779,-28 775,529.6 					"/>
					<linearGradient id="SVGID_18_" gradientUnits="userSpaceOnUse" x1="550.0746" y1="168.6487" x2="750.3655" y2="363.9324">
						<stop  offset="0" style="stop-color:#232935"/>
						<stop  offset="1" style="stop-color:#090B08"/>
					</linearGradient>
					<polygon class="st18" points="509.5,536 779,-15 775,529.7 					"/>
					<linearGradient id="SVGID_19_" gradientUnits="userSpaceOnUse" x1="546.0269" y1="574.3175" x2="775.7648" y2="412.3362">
						<stop  offset="0" style="stop-color:#A37842"/>
						<stop  offset="0.2" style="stop-color:#A3896F"/>
						<stop  offset="0.4846" style="stop-color:#E1D8D0"/>
						<stop  offset="0.7795" style="stop-color:#A3896F"/>
						<stop  offset="1" style="stop-color:#A37842"/>
					</linearGradient>
					<polygon class="st19" points="430.5,536 779,314 773.8,533.5 					"/>
					<linearGradient id="SVGID_20_" gradientUnits="userSpaceOnUse" x1="596.9913" y1="358.4731" x2="613.342" y2="510.738">
						<stop  offset="0" style="stop-color:#232935"/>
						<stop  offset="1" style="stop-color:#090B08"/>
					</linearGradient>
					<polygon class="st20" points="430.5,536 779,326 773.8,533.6 					"/>
				</g>
				<g>
					
						<radialGradient id="SVGID_21_" cx="1223.8385" cy="9585.1826" r="215.5479" gradientTransform="matrix(0.3708 -0.7706 -6.970000e-02 -3.840000e-02 854.9983 1576.4943)" gradientUnits="userSpaceOnUse">
						<stop  offset="0" style="stop-color:#E3DDDC"/>
						<stop  offset="6.131738e-02" style="stop-color:#DDD4CE;stop-opacity:0.9387"/>
						<stop  offset="0.2409" style="stop-color:#CEBFAC;stop-opacity:0.7591"/>
						<stop  offset="0.424" style="stop-color:#C1AE91;stop-opacity:0.576"/>
						<stop  offset="0.6097" style="stop-color:#B9A27E;stop-opacity:0.3903"/>
						<stop  offset="0.7996" style="stop-color:#B49A73;stop-opacity:0.2004"/>
						<stop  offset="1" style="stop-color:#B2986F;stop-opacity:0"/>
					</radialGradient>
					<path class="st21" d="M720.6,99.4c-8.3-4.6-50.8,66-94.9,157.7c-44.1,91.7-73.1,169.7-64.8,174.2c8.3,4.6,50.8-66,94.9-157.7
						C699.9,182,728.9,103.9,720.6,99.4z"/>
					<g>
						
							<radialGradient id="SVGID_22_" cx="777.1436" cy="11089.9277" r="48.2782" gradientTransform="matrix(0.929 -1.9308 -4.820000e-02 -2.670000e-02 453.2785 2061.9431)" gradientUnits="userSpaceOnUse">
							<stop  offset="0" style="stop-color:#E3DDDC"/>
							<stop  offset="0.3139" style="stop-color:#CDC0B6;stop-opacity:0.6861"/>
							<stop  offset="0.7737" style="stop-color:#AF9883;stop-opacity:0.2263"/>
							<stop  offset="1" style="stop-color:#A3896F;stop-opacity:0"/>
						</radialGradient>
						<path class="st22" d="M685.6,172.1c-1.3-0.7-22.4,40.5-47.2,91.9c-24.8,51.5-43.8,93.8-42.5,94.5c1.3,0.7,22.4-40.5,47.2-91.9
							C667.8,215.1,686.9,172.8,685.6,172.1z"/>
						
							<radialGradient id="SVGID_23_" cx="620.5906" cy="-136.4402" r="17.3483" gradientTransform="matrix(0.7634 -0.2039 -0.3337 1.282 121.4213 566.7881)" gradientUnits="userSpaceOnUse">
							<stop  offset="0" style="stop-color:#FFE4C6"/>
							<stop  offset="0.4354" style="stop-color:#FFE6B4;stop-opacity:0.5646"/>
							<stop  offset="1" style="stop-color:#FFE8A0;stop-opacity:0"/>
						</radialGradient>
						<path class="st23" d="M654,261.8c-3.2,12.3-11.7,23.8-19,25.8c-7.3,2-10.7-6.4-7.5-18.7c3.2-12.3,11.7-23.8,19-25.8
							C653.8,241.1,657.2,249.5,654,261.8z"/>
						
							<radialGradient id="SVGID_24_" cx="508.5507" cy="18.2209" r="4.9093" gradientTransform="matrix(0.7379 -3.720000e-02 -1.7564 3.7897 297.4539 215.1997)" gradientUnits="userSpaceOnUse">
							<stop  offset="0.1329" style="stop-color:#FFFFFF"/>
							<stop  offset="1" style="stop-color:#FFFFFF;stop-opacity:0"/>
						</radialGradient>
						<path class="st24" d="M644.3,265.2c-4.8,10.3-10.2,18.7-12.2,18.8c-2,0.1,0.2-8.1,5-18.4c4.8-10.3,10.2-18.7,12.2-18.8
							C651.3,246.6,649.1,254.9,644.3,265.2z"/>
					</g>
				</g>
				<g>
					
						<radialGradient id="SVGID_25_" cx="1439.0128" cy="11368.0049" r="215.4594" gradientTransform="matrix(0.5205 -0.3167 -5.700000e-02 -9.500000e-02 523.9135 1951.3972)" gradientUnits="userSpaceOnUse">
						<stop  offset="0" style="stop-color:#E3DDDC"/>
						<stop  offset="6.131738e-02" style="stop-color:#DDD4CE;stop-opacity:0.9387"/>
						<stop  offset="0.2409" style="stop-color:#CEBFAC;stop-opacity:0.7591"/>
						<stop  offset="0.424" style="stop-color:#C1AE91;stop-opacity:0.576"/>
						<stop  offset="0.6097" style="stop-color:#B9A27E;stop-opacity:0.3903"/>
						<stop  offset="0.7996" style="stop-color:#B49A73;stop-opacity:0.2004"/>
						<stop  offset="1" style="stop-color:#B2986F;stop-opacity:0"/>
					</radialGradient>
					<path class="st25" d="M737,347.5c-6.8-11.3-62.5,10-124.4,47.7c-61.9,37.7-106.6,77.4-99.8,88.7c6.8,11.3,62.5-10,124.4-47.7
						C699.1,398.5,743.8,358.8,737,347.5z"/>
					<g>
						
							<radialGradient id="SVGID_26_" cx="862.6161" cy="13726.8799" r="48.3046" gradientTransform="matrix(1.3042 -0.7933 -3.930000e-02 -6.570000e-02 39.3858 2001.8707)" gradientUnits="userSpaceOnUse">
							<stop  offset="0" style="stop-color:#E3DDDC"/>
							<stop  offset="0.3139" style="stop-color:#CDC0B6;stop-opacity:0.6861"/>
							<stop  offset="0.7737" style="stop-color:#AF9883;stop-opacity:0.2263"/>
							<stop  offset="1" style="stop-color:#A3896F;stop-opacity:0"/>
						</radialGradient>
						<path class="st26" d="M687.9,377.4c-1.1-1.8-30.1,14-64.9,35.1c-34.8,21.2-62.1,39.7-61.1,41.5c1.1,1.8,30.1-14,64.9-35.1
							C661.6,397.7,689,379.2,687.9,377.4z"/>
						
							<radialGradient id="SVGID_27_" cx="467.6159" cy="-343.7046" r="17.3474" gradientTransform="matrix(0.763 0.5136 -0.5998 0.781 61.9984 443.9671)" gradientUnits="userSpaceOnUse">
							<stop  offset="0" style="stop-color:#FFE4C6"/>
							<stop  offset="0.4354" style="stop-color:#FFE6B4;stop-opacity:0.5646"/>
							<stop  offset="1" style="stop-color:#FFE8A0;stop-opacity:0"/>
						</radialGradient>
						<path class="st27" d="M638.2,424.6c-5.7,7.5-16.3,9.6-23.6,4.6c-7.3-4.9-8.6-15-2.8-22.5c5.7-7.5,16.3-9.6,23.6-4.6
							C642.7,407.1,643.9,417.1,638.2,424.6z"/>
						
							<radialGradient id="SVGID_28_" cx="293.9226" cy="-45.7271" r="4.9096" gradientTransform="matrix(0.7017 0.6311 -2.4968 1.6172 304.5262 304.1568)" gradientUnits="userSpaceOnUse">
							<stop  offset="0.1329" style="stop-color:#FFFFFF"/>
							<stop  offset="1" style="stop-color:#FFFFFF;stop-opacity:0"/>
						</radialGradient>
						<path class="st28" d="M628.4,418.8c-6.8,4.4-13.8,6.6-15.7,4.8c-1.9-1.7,2-6.7,8.8-11c6.8-4.4,13.8-6.6,15.7-4.8
							C639.1,409.5,635.2,414.4,628.4,418.8z"/>
					</g>
				</g>
			</g>
			<g>
				
					<radialGradient id="SVGID_29_" cx="1007.1221" cy="10621.5391" r="215.5073" gradientTransform="matrix(6.560000e-02 -0.1225 -6.580000e-02 -2.940000e-02 911.5109 761.6414)" gradientUnits="userSpaceOnUse">
					<stop  offset="0" style="stop-color:#E3DDDC"/>
					<stop  offset="6.131738e-02" style="stop-color:#DDD4CE;stop-opacity:0.9387"/>
					<stop  offset="0.2409" style="stop-color:#CEBFAC;stop-opacity:0.7591"/>
					<stop  offset="0.424" style="stop-color:#C1AE91;stop-opacity:0.576"/>
					<stop  offset="0.6097" style="stop-color:#B9A27E;stop-opacity:0.3903"/>
					<stop  offset="0.7996" style="stop-color:#B49A73;stop-opacity:0.2004"/>
					<stop  offset="1" style="stop-color:#B2986F;stop-opacity:0"/>
				</radialGradient>
				<path class="st29" d="M292.8,299.6c-7.8-3.5-20.5,5.5-28.3,20c-7.8,14.6-7.8,29.2,0.1,32.7c7.8,3.5,20.5-5.5,28.3-20
					C300.7,317.8,300.7,303.1,292.8,299.6z"/>
				<g>
					
						<radialGradient id="SVGID_30_" cx="695.1431" cy="12635.4922" r="48.3122" gradientTransform="matrix(0.1644 -0.3068 -4.550000e-02 -2.030000e-02 739.3141 795.7661)" gradientUnits="userSpaceOnUse">
						<stop  offset="0" style="stop-color:#E3DDDC"/>
						<stop  offset="0.3139" style="stop-color:#CDC0B6;stop-opacity:0.6861"/>
						<stop  offset="0.7737" style="stop-color:#AF9883;stop-opacity:0.2263"/>
						<stop  offset="1" style="stop-color:#A3896F;stop-opacity:0"/>
					</radialGradient>
					<path class="st30" d="M286.6,311.2c-1.2-0.5-5.8,5.7-10.1,13.8s-7,15.3-5.7,15.8c1.2,0.5,5.8-5.7,10.1-13.8
						S287.8,311.7,286.6,311.2z"/>
					
						<radialGradient id="SVGID_31_" cx="451.7825" cy="-67.6312" r="17.3475" gradientTransform="matrix(0.1432 -0.5385 0.2785 -0.1127 232.8208 561.6586)" gradientUnits="userSpaceOnUse">
						<stop  offset="0" style="stop-color:#FFE4C6"/>
						<stop  offset="0.4354" style="stop-color:#FFE6B4;stop-opacity:0.5646"/>
						<stop  offset="1" style="stop-color:#FFE8A0;stop-opacity:0"/>
					</radialGradient>
					<path class="st31" d="M281.2,316.7c2.7-1.1,3.7,2.2,2.3,7.4c-1.4,5.2-4.6,10.2-7.3,11.3c-2.7,1.1-3.7-2.2-2.3-7.4
						S278.5,317.7,281.2,316.7z"/>
					
						<radialGradient id="SVGID_32_" cx="378.5718" cy="50.1701" r="4.9097" gradientTransform="matrix(0.5671 0.1841 -0.2701 0.6199 77.5436 225.2002)" gradientUnits="userSpaceOnUse">
						<stop  offset="0.1329" style="stop-color:#FFFFFF"/>
						<stop  offset="1" style="stop-color:#FFFFFF;stop-opacity:0"/>
					</radialGradient>
					<path class="st32" d="M281.5,326.9c-0.7,1.7-2.6,2.6-4.1,2.1s-2.2-2.3-1.5-3.9c0.7-1.7,2.6-2.6,4.1-2.1
						C281.5,323.5,282.2,325.2,281.5,326.9z"/>
				</g>
			</g>
			<g>
				<g>
					<linearGradient id="SVGID_33_" gradientUnits="userSpaceOnUse" x1="198.5502" y1="281.08" x2="144.0197" y2="337.5239">
						<stop  offset="0" style="stop-color:#A3896F"/>
						<stop  offset="0.4846" style="stop-color:#E1D8D0"/>
						<stop  offset="1" style="stop-color:#A3896F"/>
					</linearGradient>
					<polygon class="st33" points="-32.1,42.1 425.5,523.8 -7.3,523.8 					"/>
					<linearGradient id="SVGID_34_" gradientUnits="userSpaceOnUse" x1="200.255" y1="263.3274" x2="143.255" y2="322.3275">
						<stop  offset="0" style="stop-color:#232935"/>
						<stop  offset="1" style="stop-color:#090B08"/>
					</linearGradient>
					<polygon class="st34" points="-32.1,22 414.1,523.8 -7.9,523.8 					"/>
					<linearGradient id="SVGID_35_" gradientUnits="userSpaceOnUse" x1="334.0586" y1="299.2556" x2="157.7032" y2="371.5612">
						<stop  offset="0" style="stop-color:#232935"/>
						<stop  offset="1" style="stop-color:#090B08"/>
					</linearGradient>
					<polygon class="st35" points="-32.1,192 414.1,523.8 -7.9,523.8 					"/>
					<linearGradient id="SVGID_36_" gradientUnits="userSpaceOnUse" x1="-38.7225" y1="91.9072" x2="162.1487" y2="522.3453">
						<stop  offset="0" style="stop-color:#A37842"/>
						<stop  offset="0.2" style="stop-color:#A3896F"/>
						<stop  offset="0.4846" style="stop-color:#E1D8D0"/>
						<stop  offset="0.7795" style="stop-color:#A3896F"/>
						<stop  offset="1" style="stop-color:#A37842"/>
					</linearGradient>
					<polygon class="st36" points="-37.9,8.6 287.2,315.5 151.7,547.9 -47.5,547.9 					"/>
					<linearGradient id="SVGID_37_" gradientUnits="userSpaceOnUse" x1="210.7351" y1="209.4259" x2="69.4018" y2="273.4261">
						<stop  offset="0" style="stop-color:#232935"/>
						<stop  offset="1" style="stop-color:#090B08"/>
					</linearGradient>
					<polygon class="st37" points="-38.1,8.6 280.4,315.5 155.4,547.9 -47.5,547.9 					"/>
					<linearGradient id="SVGID_38_" gradientUnits="userSpaceOnUse" x1="153.6966" y1="239.0676" x2="-112.5096" y2="320.0868">
						<stop  offset="0" style="stop-color:#232935"/>
						<stop  offset="1" style="stop-color:#090B08"/>
					</linearGradient>
					<polygon class="st38" points="-41.1,8.6 175.9,315.5 90.8,547.9 -47.5,547.9 					"/>
					<g>
						<g>
							<linearGradient id="SVGID_39_" gradientUnits="userSpaceOnUse" x1="-48.4252" y1="278.7679" x2="160.4713" y2="278.7679">
								<stop  offset="0" style="stop-color:#A37842"/>
								<stop  offset="0.2" style="stop-color:#A3896F"/>
								<stop  offset="0.4846" style="stop-color:#E1D8D0"/>
								<stop  offset="0.7795" style="stop-color:#A3896F"/>
								<stop  offset="1" style="stop-color:#A37842"/>
							</linearGradient>
							<path class="st39" d="M-41.5,8.6L160,315.1l0.2,0.3l-0.1,0.4L81.4,548.3l-0.2,0.7l-0.7,0l-128,0l-1,0l0-1l1.6-135.1l1.8-135
								L-41.5,8.6z M-41.5,8.6L-44,278.7l-1.2,134.7L-46.5,548l-0.9-1l128,0l-0.9,0.7l78.9-232.4l0.1,0.7L-41.5,8.6z"/>
						</g>
					</g>
					<g>
						
							<radialGradient id="SVGID_40_" cx="250.6306" cy="10494.7646" r="215.5504" gradientTransform="matrix(0.321 0.4896 4.110000e-02 -2.320000e-02 -434.1098 312.7698)" gradientUnits="userSpaceOnUse">
							<stop  offset="0" style="stop-color:#E3DDDC"/>
							<stop  offset="6.131738e-02" style="stop-color:#DDD4CE;stop-opacity:0.9387"/>
							<stop  offset="0.2409" style="stop-color:#CEBFAC;stop-opacity:0.7591"/>
							<stop  offset="0.424" style="stop-color:#C1AE91;stop-opacity:0.576"/>
							<stop  offset="0.6097" style="stop-color:#B9A27E;stop-opacity:0.3903"/>
							<stop  offset="0.7996" style="stop-color:#B49A73;stop-opacity:0.2004"/>
							<stop  offset="1" style="stop-color:#B2986F;stop-opacity:0"/>
						</radialGradient>
						<path class="st40" d="M146.8,297.4c4.9-2.8-22.1-52.2-60.3-110.4C48.4,128.8,13.4,83.8,8.5,86.6C3.6,89.3,30.6,138.8,68.8,197
							C107,255.2,141.9,300.2,146.8,297.4z"/>
						<g>
							
								<radialGradient id="SVGID_41_" cx="387.7793" cy="12428.9775" r="48.3179" gradientTransform="matrix(0.8043 1.2266 2.850000e-02 -1.590000e-02 -588.4393 -86.0293)" gradientUnits="userSpaceOnUse">
								<stop  offset="0" style="stop-color:#E3DDDC"/>
								<stop  offset="0.3139" style="stop-color:#CDC0B6;stop-opacity:0.6861"/>
								<stop  offset="0.7737" style="stop-color:#AF9883;stop-opacity:0.2263"/>
								<stop  offset="1" style="stop-color:#A3896F;stop-opacity:0"/>
							</radialGradient>
							<path class="st41" d="M116.5,251.2c0.8-0.4-16-27.3-37.5-60c-21.4-32.7-39.4-58.9-40.2-58.4c-0.8,0.4,16,27.3,37.5,60
								C97.7,225.5,115.7,251.6,116.5,251.2z"/>
							
								<radialGradient id="SVGID_42_" cx="283.1128" cy="368.0614" r="17.347" gradientTransform="matrix(-0.1047 0.4884 -0.6148 -0.6617 333.6036 297.274)" gradientUnits="userSpaceOnUse">
								<stop  offset="0" style="stop-color:#FFE4C6"/>
								<stop  offset="0.4354" style="stop-color:#FFE6B4;stop-opacity:0.5646"/>
								<stop  offset="1" style="stop-color:#FFE8A0;stop-opacity:0"/>
							</radialGradient>
							<path class="st42" d="M75.9,200.5c-5.9-6.3-9.9-15.3-8.8-20c1-4.7,6.6-3.3,12.5,3c5.9,6.3,9.9,15.3,8.8,20
								C87.3,208.2,81.8,206.8,75.9,200.5z"/>
							
								<radialGradient id="SVGID_43_" cx="379.9027" cy="205.8251" r="4.9093" gradientTransform="matrix(-0.1897 0.412 -1.5978 -2.3715 478.6123 523.5942)" gradientUnits="userSpaceOnUse">
								<stop  offset="0.1329" style="stop-color:#FFFFFF"/>
								<stop  offset="1" style="stop-color:#FFFFFF;stop-opacity:0"/>
							</radialGradient>
							<path class="st43" d="M76.7,194c-4.3-6.4-7.4-12.5-6.9-13.7c0.5-1.1,4.4,3.2,8.8,9.6c4.3,6.4,7.4,12.5,6.9,13.7
								C85,204.8,81.1,200.5,76.7,194z"/>
						</g>
					</g>
				</g>
				<g>
					
						<radialGradient id="SVGID_44_" cx="698.3268" cy="11821.7432" r="215.5016" gradientTransform="matrix(0.4405 0.4209 7.700000e-02 -7.960000e-02 -1041.9626 860.2083)" gradientUnits="userSpaceOnUse">
						<stop  offset="0" style="stop-color:#E3DDDC"/>
						<stop  offset="6.131738e-02" style="stop-color:#DDD4CE;stop-opacity:0.9387"/>
						<stop  offset="0.2409" style="stop-color:#CEBFAC;stop-opacity:0.7591"/>
						<stop  offset="0.424" style="stop-color:#C1AE91;stop-opacity:0.576"/>
						<stop  offset="0.6097" style="stop-color:#B9A27E;stop-opacity:0.3903"/>
						<stop  offset="0.7996" style="stop-color:#B49A73;stop-opacity:0.2004"/>
						<stop  offset="1" style="stop-color:#B2986F;stop-opacity:0"/>
					</radialGradient>
					<path class="st44" d="M270.8,303.8c9.2-9.5-25.9-57.8-78.3-107.8c-52.4-50.1-102.3-83-111.5-73.5
						c-9.2,9.5,25.9,57.8,78.3,107.8C211.7,280.4,261.6,313.2,270.8,303.8z"/>
					<g>
						
							<radialGradient id="SVGID_45_" cx="567.2178" cy="14353.5723" r="48.2942" gradientTransform="matrix(1.1037 1.0546 5.330000e-02 -5.500000e-02 -1215.1592 404.3819)" gradientUnits="userSpaceOnUse">
							<stop  offset="0" style="stop-color:#E3DDDC"/>
							<stop  offset="0.3139" style="stop-color:#CDC0B6;stop-opacity:0.6861"/>
							<stop  offset="0.7737" style="stop-color:#AF9883;stop-opacity:0.2263"/>
							<stop  offset="1" style="stop-color:#A3896F;stop-opacity:0"/>
						</radialGradient>
						<path class="st45" d="M229.2,264c1.4-1.5-21.3-25.5-50.7-53.6c-29.4-28.1-54.4-49.7-55.9-48.3c-1.4,1.5,21.3,25.5,50.7,53.6
							C202.8,243.9,227.8,265.5,229.2,264z"/>
						
							<radialGradient id="SVGID_46_" cx="241.2674" cy="52.2547" r="17.3471" gradientTransform="matrix(-0.2987 0.8699 -0.9096 -0.3774 295.5221 22.9657)" gradientUnits="userSpaceOnUse">
							<stop  offset="0" style="stop-color:#FFE4C6"/>
							<stop  offset="0.4354" style="stop-color:#FFE6B4;stop-opacity:0.5646"/>
							<stop  offset="1" style="stop-color:#FFE8A0;stop-opacity:0"/>
						</radialGradient>
						<path class="st46" d="M170.7,228.2c-8.7-3.6-13.5-13.3-10.6-21.6c2.9-8.3,12.2-12.2,21-8.5c8.7,3.6,13.5,13.3,10.6,21.6
							C188.8,228,179.5,231.8,170.7,228.2z"/>
						
							<radialGradient id="SVGID_47_" cx="226.4312" cy="99.6057" r="4.9094" gradientTransform="matrix(-0.4281 0.8411 -2.2081 -1.9935 492.799 221.2358)" gradientUnits="userSpaceOnUse">
							<stop  offset="0.1329" style="stop-color:#FFFFFF"/>
							<stop  offset="1" style="stop-color:#FFFFFF;stop-opacity:0"/>
						</radialGradient>
						<path class="st47" d="M173.8,217.3c-6-5.4-9.9-11.6-8.7-13.9c1.2-2.3,7,0.3,12.9,5.7c6,5.4,9.9,11.6,8.7,13.9
							C185.6,225.2,179.8,222.7,173.8,217.3z"/>
					</g>
				</g>
				<g>
					
						<radialGradient id="SVGID_48_" cx="1038.9471" cy="12114.2363" r="215.4989" gradientTransform="matrix(0.4042 0.4558 8.330000e-02 -7.300000e-02 -1058.3936 881.5144)" gradientUnits="userSpaceOnUse">
						<stop  offset="0" style="stop-color:#E3DDDC"/>
						<stop  offset="6.131738e-02" style="stop-color:#DDD4CE;stop-opacity:0.9387"/>
						<stop  offset="0.2409" style="stop-color:#CEBFAC;stop-opacity:0.7591"/>
						<stop  offset="0.424" style="stop-color:#C1AE91;stop-opacity:0.576"/>
						<stop  offset="0.6097" style="stop-color:#B9A27E;stop-opacity:0.3903"/>
						<stop  offset="0.7996" style="stop-color:#B49A73;stop-opacity:0.2004"/>
						<stop  offset="1" style="stop-color:#B2986F;stop-opacity:0"/>
					</radialGradient>
					<path class="st48" d="M457.7,568.9c9.9-8.7-21-59.7-69.1-113.9c-48.1-54.2-95.1-91.1-105-82.4c-9.9,8.7,21,59.7,69.1,113.9
						C400.8,540.7,447.8,577.6,457.7,568.9z"/>
					<g>
						
							<radialGradient id="SVGID_49_" cx="702.181" cy="14783.5449" r="48.2878" gradientTransform="matrix(1.0127 1.1422 5.770000e-02 -5.040000e-02 -1193.4445 413.7868)" gradientUnits="userSpaceOnUse">
							<stop  offset="0" style="stop-color:#E3DDDC"/>
							<stop  offset="0.3139" style="stop-color:#CDC0B6;stop-opacity:0.6861"/>
							<stop  offset="0.7737" style="stop-color:#AF9883;stop-opacity:0.2263"/>
							<stop  offset="1" style="stop-color:#A3896F;stop-opacity:0"/>
						</radialGradient>
						<path class="st49" d="M419.6,525.9c1.5-1.3-19.1-27.1-46.1-57.6c-27-30.5-50.1-54.1-51.7-52.7c-1.5,1.3,19.1,27.1,46.1,57.6
							C394.9,503.6,418,527.2,419.6,525.9z"/>
						
							<radialGradient id="SVGID_50_" cx="289.3318" cy="-153.0576" r="17.3472" gradientTransform="matrix(-0.3696 0.8422 -0.8753 -0.4513 343.6306 157.9771)" gradientUnits="userSpaceOnUse">
							<stop  offset="0" style="stop-color:#FFE4C6"/>
							<stop  offset="0.4354" style="stop-color:#FFE6B4;stop-opacity:0.5646"/>
							<stop  offset="1" style="stop-color:#FFE8A0;stop-opacity:0"/>
						</radialGradient>
						<path class="st50" d="M364.3,485.3c-8.4-4.3-12.3-14.4-8.8-22.4c3.5-8.1,13.2-11.1,21.6-6.8c8.4,4.3,12.3,14.4,8.8,22.4
							C382.3,486.6,372.6,489.7,364.3,485.3z"/>
						
							<radialGradient id="SVGID_51_" cx="196.9375" cy="27.589" r="4.9097" gradientTransform="matrix(-0.4961 0.8028 -2.0358 -2.1691 524.5311 372.469)" gradientUnits="userSpaceOnUse">
							<stop  offset="0.1329" style="stop-color:#FFFFFF"/>
							<stop  offset="1" style="stop-color:#FFFFFF;stop-opacity:0"/>
						</radialGradient>
						<path class="st51" d="M368.2,474.7c-5.5-5.9-8.9-12.4-7.6-14.6c1.3-2.2,6.9,0.8,12.4,6.7c5.5,5.9,8.9,12.4,7.6,14.6
							C379.3,483.6,373.7,480.5,368.2,474.7z"/>
					</g>
				</g>
			</g>
		</g>
	</g>
</g>
</svg>
